FFmpeg version SVN-r25716, Copyright (c) 2000-2010 the FFmpeg developers  built on Nov 10 2010 12:23:18 with gcc 4.1.2 20080704 (Red Hat 4.1.2-48)  configuration: --enable-libmp3lame --enable-shared --disable-mmx --arch=x86_64  libavutil     50.33. 0 / 50.33. 0  libavcore      0.12. 1 /  0.12. 1  libavcodec    52.94. 4 / 52.94. 4  libavformat   52.84. 0 / 52.84. 0  libavdevice   52. 2. 2 / 52. 2. 2  libavfilter    1.59. 0 /  1.59. 0  libswscale     0.12. 0 /  0.12. 0Seems stream 0 codec frame rate differs from container frame rate: 5000.00 (5000/1) -> 25.00 (25/1)Input #0, mov,mp4,m4a,3gp,3g2,mj2, from '/RAID10/data/converted_video_files/25540.mov':  Metadata:    major_brand     : qt      minor_version   : 537199360    compatible_brands: qt    Duration: 00:00:09.28, start: 0.000000, bitrate: 713 kb/s    Stream #0.0(eng): Video: h264, yuv420p, 784x576, 709 kb/s, 25 fps, 25 tbr, 2500 tbn, 5k tbc[buffer @ 0x14c15200] w:784 h:576 pixfmt:yuv420pOutput #0, flv, to '/RAID10/data/converted_video_files/25540.flv':  Metadata:    encoder         : Lavf52.84.0    Stream #0.0(eng): Video: flv, yuv420p, 784x576, q=2-31, 600 kb/s, 1k tbn, 24 tbcStream mapping:  Stream #0.0 -> #0.0Press [q] to stop encodingframe=   52 fps=  0 q=5.8 size=     330kB time=2.17 bitrate=1248.5kbits/s dup=0 drop=2    frame=   93 fps= 89 q=6.6 size=     461kB time=3.88 bitrate= 974.3kbits/s dup=0 drop=4    frame=  143 fps= 93 q=7.3 size=     637kB time=5.96 bitrate= 875.2kbits/s dup=0 drop=6    frame=  200 fps= 92 q=6.9 size=     811kB time=8.33 bitrate= 796.9kbits/s dup=0 drop=8    frame=  223 fps= 89 q=7.0 Lsize=     903kB time=9.29 bitrate= 796.1kbits/s dup=0 drop=9    video:899kB audio:0kB global headers:0kB muxing overhead 0.410246%